<svg width="40" height="40" viewBox="0 0 40 40" fill="none" xmlns="http://www.w3.org/2000/svg">
  <defs>
    <linearGradient id="g" x1="2" y1="2" x2="38" y2="38" gradientUnits="userSpaceOnUse">
      <stop offset="0%" stop-color="#06B6D4" />
      <stop offset="100%" stop-color="#8B5CF6" />
    </linearGradient>
    <filter id="glow" x="-20%" y="-20%" width="140%" height="140%">
      <feGaussianBlur stdDeviation="1" result="blur" />
      <feMerge>
        <feMergeNode in="blur" />
        <feMergeNode in="SourceGraphic" />
      </feMerge>
    </filter>
  </defs>
  <!-- Marco de Brújula Tecnológica (Vector Sur) -->
  <path d="M20 2L37 16L20 38L3 16Z" stroke="url(#g)" stroke-width="1.5" stroke-linejoin="round" fill="rgba(6, 182, 212, 0.05)"/>
  
  <!-- Conexiones Neuronales -->
  <path d="M20 2V38M3 16H37M3 16L20 2L37 16M3 16L20 38L37 16" stroke="url(#g)" stroke-width="0.5" stroke-opacity="0.4"/>
  
  <!-- Nodos de Procesamiento -->
  <circle cx="20" cy="2" r="2" fill="#06B6D4" />
  <circle cx="37" cy="16" r="2" fill="#06B6D4" />
  <circle cx="3" cy="16" r="2" fill="#06B6D4" />
  
  <!-- Nodo Sur (Énfasis) -->
  <circle cx="20" cy="38" r="3" fill="#8B5CF6" filter="url(#glow)" />
  <circle cx="20" cy="38" r="1.2" fill="#FACC15" />
  
  <!-- Núcleo de IA -->
  <circle cx="20" cy="16" r="4.5" fill="url(#g)" filter="url(#glow)" />
  <path d="M18 16L20 14L22 16L20 18Z" fill="white" />
</svg>
